<svg height="256pt" preserveAspectRatio="xMidYMid meet" viewBox="0 0 256 256" width="256pt" xmlns="http://www.w3.org/2000/svg"><g><path d="M110.9 1.2C77.7 5.4 46.2 24 25.5 51.5 16.8 63.2 7.1 83 4.4 94.7c-6.3 28.2-5.3 52.8 3.1 76.3 13.4 37.1 43.3 66.4 80 78.3 15.7 5.1 23.2 6.2 42.5 6.2 32.6-.2 63.1-12.8 86.7-36.1 6.3-6.3 15.3-17 15.3-18.3 0-.5.4-1.1.8-1.3 2.7-1.1 12.6-21.1 16.2-32.6 5.5-17.5 7.5-40.4 5-57.2-3.3-21.5-11.5-41.3-24.5-58.9-5.2-7-18-20.2-23.4-24l-3.4-2.4.6 13.2c.6 12.2 1.1 14.6 3.7 17.1 4.3 4.1 13.8 21.6 16.8 31 3.3 10.6 4.4 17.2 4.4 28 0 7.9-.2 10.1-1.8 18.5-2.9 15.9-12.6 33.1-25.9 46-17 16.5-38.5 25.4-62.6 26-9.6.2-13.7-.1-23.4-1.9-8.4-1.5-23.9-8-33.3-14-16.9-10.6-31.6-29.5-38.3-49-17.1-49.9 10.6-102 61.7-116.5 9.8-2.8 8.6-1.9 20.2-15.6 1.4-1.7 3.4-4 4.6-5.3l2.1-2.3-7.5.3c-4.1.1-10 .6-13.1 1z"/><path d="M143.5 38.1c-11.5 14.3-21.7 26.9-22.7 28-15.6 18.6-19.7 25.4-21.7 36.4-2.3 12.5 3.4 26.2 14 33.4 15.7 10.8 34.8 9.9 47-2.2 4.5-4.5 9.7-14.5 10.7-20.5.8-4.6.7-24.9-.3-59.2-.4-14.6-.8-29.4-.9-33-.2-7.2-.9-9-3.4-9-1 0-10.4 10.8-22.7 26.1z"/></g></svg>
